<mxfile host="app.diagrams.net" modified="2024-03-25T13:40:26.034Z" agent="Mozilla/5.0 (Windows NT 10.0; Win64; x64) AppleWebKit/537.36 (KHTML, like Gecko) Chrome/122.0.0.0 Safari/537.36" version="24.1.0" etag="nmT-drzpgPBuEgEbeGSJ" type="github">
  <diagram name="PÃ¡gina-1" id="UeKgwRGnqYcea6hmTysw">
    <mxGraphModel>
      <root>
        <mxCell id="0" />
        <mxCell id="1" parent="0" />
      </root>
    </mxGraphModel>
  </diagram>
</mxfile>
